<?xml version="1.0" encoding="UTF-8" standalone="no"?>
<!-- Generator: Adobe Illustrator 16.0.3, SVG Export Plug-In . SVG Version: 6.00 Build 0)  -->

<svg
   xmlns:dc="http://purl.org/dc/elements/1.1/"
   xmlns:cc="http://creativecommons.org/ns#"
   xmlns:rdf="http://www.w3.org/1999/02/22-rdf-syntax-ns#"
   xmlns:svg="http://www.w3.org/2000/svg"
   xmlns="http://www.w3.org/2000/svg"
   xmlns:sodipodi="http://sodipodi.sourceforge.net/DTD/sodipodi-0.dtd"
   xmlns:inkscape="http://www.inkscape.org/namespaces/inkscape"
   version="1.1"
   id="svg6034"
   sodipodi:docname="SESA Triforce Logo.svg"
   inkscape:version="0.91 r13725"
   x="0px"
   y="0px"
   width="1855.512px"
   height="1159.584px"
   viewBox="0 0 1855.512 1159.584"
   enable-background="new 0 0 1855.512 1159.584"
   xml:space="preserve"
   inkscape:export-filename="/Users/Saren/Documents/sesa/SESA Triforce Logo small.png"
   inkscape:export-xdpi="6.2085357"
   inkscape:export-ydpi="6.2085357"><metadata
     id="metadata56"><rdf:RDF><cc:Work
         rdf:about=""><dc:format>image/svg+xml</dc:format><dc:type
           rdf:resource="http://purl.org/dc/dcmitype/StillImage" /></cc:Work></rdf:RDF></metadata><defs
     id="defs54" /><sodipodi:namedview
     showgrid="true"
     id="base"
     bordercolor="#666666"
     fit-margin-left="0"
     fit-margin-top="0"
     pagecolor="#ffffff"
     borderopacity="1.0"
     inkscape:cx="1143.5879"
     inkscape:zoom="0.49497475"
     inkscape:cy="856.82074"
     fit-margin-bottom="0"
     fit-margin-right="0"
     inkscape:window-maximized="1"
     inkscape:window-y="0"
     inkscape:window-x="0"
     inkscape:document-units="px"
     inkscape:pageopacity="0.0"
     inkscape:window-height="751"
     inkscape:window-width="1280"
     inkscape:current-layer="layer1"
     inkscape:pageshadow="2"><inkscape:grid
       visible="true"
       id="grid6061"
       enabled="true"
       type="xygrid"
       empspacing="5"
       snapvisiblegridlinesonly="true" /></sodipodi:namedview><g
     id="layer1"
     transform="translate(505.593,-28.169953)"
     inkscape:label="Layer 1"
     inkscape:groupmode="layer"><path
       id="path6120"
       sodipodi:nodetypes="ccccccsccccsccscccccsscc"
       inkscape:connector-curvature="0"
       d="M148.075,1186.202   c0-0.854-1.521-2.187-3.379-2.963c-33.506-28.857-86.503-64.078-94.631-101.045c0.015-5.876,1.501-7.228,8.51-7.735   c52.725-7.172,108.973-10.519,157-10.708c35.329-33.869,42.033-88.602,71.348-117.528c7.534-3.449,19.963-3.784,26.867-0.724   c2.632,1.167,5.993,2.377,7.469,2.689c4.484,0.95,4.256,3.522-1.259,14.174c-13.227,36.451-45.244,69.841-53.925,103.903   c10.453,4.639,26.53,1.156,40.846,7.988c6.045,3.054,5.971,2.62,2.822,16.499c-4.131,18.206-4.758,19.847-8.497,22.233   c-17.064,11.466-41.566,20.47-54.763,31.264c-5.849,5.029-7.151,3.055-8.011-12.15c-0.789-13.962-0.942-14.18-10.879-15.379   c-25.796-6.85-53.881-3.432-74.927-0.052c-3.587,0.509-6.988,1.212-7.558,1.563c-2.959,13.302,6.866,25.494,6.966,38.228   c0.449,5.864,2.37,12.158,1.217,17.182c-0.6,2.537-1.371,6.749-1.715,9.362c-0.418,3.176-1.102,4.75-2.063,4.75   C148.722,1187.754,148.075,1187.056,148.075,1186.202L148.075,1186.202z" /><polygon
       points="460,927.362 545,867.362 420,597.362 295,867.362 380,927.362 385,972.362 360,992.362 420,1187.362 480,992.362    455,972.362  "
       id="polygon7" /><path
       id="path6124"
       sodipodi:nodetypes="ccccccsccccsccscccccsscc"
       inkscape:connector-curvature="0"
       d="M691.925,1186.202   c0-0.854,1.521-2.187,3.38-2.963c33.505-28.857,86.502-64.078,94.63-101.045c-0.015-5.876-1.5-7.228-8.51-7.735   c-52.725-7.172-108.972-10.519-157-10.708c-35.329-33.869-42.033-88.602-71.347-117.528c-7.535-3.449-19.963-3.784-26.868-0.724   c-2.632,1.167-5.992,2.377-7.469,2.689c-4.483,0.95-4.255,3.522,1.259,14.174c13.227,36.451,45.244,69.841,53.925,103.903   c-10.452,4.639-26.529,1.156-40.846,7.988c-6.045,3.054-5.971,2.62-2.821,16.499c4.131,18.206,4.758,19.847,8.496,22.233   c17.064,11.466,41.567,20.47,54.763,31.264c5.849,5.029,7.151,3.055,8.011-12.15c0.789-13.962,0.942-14.18,10.879-15.379   c25.796-6.85,53.882-3.432,74.927-0.052c3.588,0.509,6.988,1.212,7.558,1.563c2.959,13.302-6.865,25.494-6.966,38.228   c-0.449,5.864-2.369,12.158-1.217,17.182c0.6,2.537,1.372,6.749,1.715,9.362c0.418,3.176,1.102,4.75,2.063,4.75   C691.278,1187.754,691.925,1187.056,691.925,1186.202L691.925,1186.202z" /><path
       id="path6266"
       sodipodi:nodetypes="cccccccccccccccccccccc"
       inkscape:connector-curvature="0"
       d="M908.856,913.681   C814.969,808.151,728.86,714.126,644.403,619.342c47.961-48.209,71.934-122.555,71.796-180.967   c0.84-14.131-2.102-28.076-2.785-42.069c0.005-23.357-33.019-105.038-13.995-102.805c17.443,5.766,28.786,27.769,38.153,37.874   c10.04,9.02,18.742,34.631,28.4,42.628c194.907-76.571,401.299-133.661,574.822-211.534c4.837-2.204,6.534-2.48,9.123-1.487   c-0.827,76.009-31.83,144.665-54.804,210.983C1166.363,397.878,1017.41,418.912,900,432.362   c-32.168,9.577-66.162,4.709-94.105,14.56c-10.702,11.118-8.776,43.755-6.063,59.637c45.645,4.447,426.937,41.7,426.125,44.146   c-21.146,57.886-41.465,132.59-96.492,168.689c-96.437-29.676-198.405-70.185-285.964-99.744   c-10.921-1.522-60.313-29.332-67.478-20.024c-5.033,13.753-12.937,30.56-15.011,42.822   c85.561,76.583,188.829,132.651,273.31,197.533c-24.756,28.535-78.276,71.63-116.126,78.831   C914.544,919.459,914.168,919.253,908.856,913.681L908.856,913.681z" /><path
       id="path6268"
       sodipodi:nodetypes="ccccccccccccscccccccccc"
       inkscape:connector-curvature="0"
       d="M-70.9,916.655   c-42.576-14.387-82.966-48.594-113.292-78.249l3.251-2.772C-91.643,780.185-8.561,707.242,69.764,659.79   c5.61-5.312,19.071-11.975,20.246-16.262C88.024,632.983,83.26,621.832,80,612.362c-5.061-14.779-6.404-17-10.282-17   c-100.306,35.285-203.9,72.507-295.703,105.327c-33.917,12.123-50.014,17.673-51.256,17.673   c-142.689-133.63-188.076-400.324-228.352-558.654c188.518,64.875,413.212,143.051,595.405,214.72   c25.383-15.296,36.865-66.872,66.283-73.94c6.306-0.876,9.919-0.173,9.919,1.93c0,0.542-1.732,6.264-3.851,12.715   c-11.171,44.667-24.77,89.838-24.953,134.979c0.515,6.063-1.302,3.891-3.492,6.58c-152.931-17.445-273.837-43.572-414.474-59.884   c-5.732-0.648-5.979-0.582-6.57,1.775c2.436,41.245,25.996,99.639,44.72,130.409c54.189,6.049,310.646-42.021,376.62-32.63   c17.076,51.06,39.025,88.036,73.515,122.767C121.951,712.296,32.725,810.028-41.929,892.362   C-64.379,917.125-65.166,917.785-70.9,916.655L-70.9,916.655z" /></g><g
     inkscape:groupmode="layer"
     id="layer2"
     inkscape:label="Layer 2"
     style="display:none"><g
       id="g6386"
       transform="matrix(1,0,0,-1,255.593,-107.52466)"><g
         id="g6407"
         transform="matrix(4.1875,0,0,4.1875,402,-571.71689)"><g
           id="iteration3"><g
             id="use6410"
             transform="scale(0.5,0.5)"><g
               id="use6455"
               transform="scale(0.5,0.5)"><path
                 id="use6479"
                 inkscape:connector-curvature="0"
                 d="M 0,0 64,0 32,55.425 0,0 Z" /><path
                 id="use6481"
                 inkscape:connector-curvature="0"
                 d="M 64,0 128,0 96,55.425 64,0 Z" /><path
                 id="use6483"
                 inkscape:connector-curvature="0"
                 d="m 32,55.426 64,0 -32,55.425 -32,-55.425 z" /></g><g
               id="use6457"
               transform="matrix(0.5,0,0,0.5,64,0)"><path
                 id="use6487"
                 inkscape:connector-curvature="0"
                 d="M 0,0 64,0 32,55.425 0,0 Z" /><path
                 id="use6489"
                 inkscape:connector-curvature="0"
                 d="M 64,0 128,0 96,55.425 64,0 Z" /><path
                 id="use6491"
                 inkscape:connector-curvature="0"
                 d="m 32,55.426 64,0 -32,55.425 -32,-55.425 z" /></g><g
               id="use6459"
               transform="matrix(0.5,0,0,0.5,32,55.426)"><path
                 id="use6495"
                 inkscape:connector-curvature="0"
                 d="M 0,0 64,0 32,55.425 0,0 Z" /><path
                 id="use6497"
                 inkscape:connector-curvature="0"
                 d="M 64,0 128,0 96,55.425 64,0 Z" /><path
                 id="use6499"
                 inkscape:connector-curvature="0"
                 d="m 32,55.426 64,0 -32,55.425 -32,-55.425 z" /></g></g><g
             id="use6412"
             transform="matrix(0.5,0,0,0.5,64,0)"><g
               id="use6463"
               transform="scale(0.5,0.5)"><path
                 id="use6503"
                 inkscape:connector-curvature="0"
                 d="M 0,0 64,0 32,55.425 0,0 Z" /><path
                 id="use6505"
                 inkscape:connector-curvature="0"
                 d="M 64,0 128,0 96,55.425 64,0 Z" /><path
                 id="use6507"
                 inkscape:connector-curvature="0"
                 d="m 32,55.426 64,0 -32,55.425 -32,-55.425 z" /></g><g
               id="use6465"
               transform="matrix(0.5,0,0,0.5,64,0)"><path
                 id="use6511"
                 inkscape:connector-curvature="0"
                 d="M 0,0 64,0 32,55.425 0,0 Z" /><path
                 id="use6513"
                 inkscape:connector-curvature="0"
                 d="M 64,0 128,0 96,55.425 64,0 Z" /><path
                 id="use6515"
                 inkscape:connector-curvature="0"
                 d="m 32,55.426 64,0 -32,55.425 -32,-55.425 z" /></g><g
               id="use6467"
               transform="matrix(0.5,0,0,0.5,32,55.426)"><path
                 id="use6519"
                 inkscape:connector-curvature="0"
                 d="M 0,0 64,0 32,55.425 0,0 Z" /><path
                 id="use6521"
                 inkscape:connector-curvature="0"
                 d="M 64,0 128,0 96,55.425 64,0 Z" /><path
                 id="use6523"
                 inkscape:connector-curvature="0"
                 d="m 32,55.426 64,0 -32,55.425 -32,-55.425 z" /></g></g><g
             id="use6414"
             transform="matrix(0.5,0,0,0.5,32,55.426)"><g
               id="use6471"
               transform="scale(0.5,0.5)"><path
                 id="use6527"
                 inkscape:connector-curvature="0"
                 d="M 0,0 64,0 32,55.426 0,0 Z" /><path
                 id="use6529"
                 inkscape:connector-curvature="0"
                 d="M 64,0 128,0 96,55.426 64,0 Z" /><path
                 id="use6531"
                 inkscape:connector-curvature="0"
                 d="m 32,55.426 64,0 -32,55.425 -32,-55.425 z" /></g><g
               id="use6473"
               transform="matrix(0.5,0,0,0.5,64,0)"><path
                 id="use6535"
                 inkscape:connector-curvature="0"
                 d="M 0,0 64,0 32,55.426 0,0 Z" /><path
                 id="use6537"
                 inkscape:connector-curvature="0"
                 d="M 64,0 128,0 96,55.426 64,0 Z" /><path
                 id="use6539"
                 inkscape:connector-curvature="0"
                 d="m 32,55.426 64,0 -32,55.425 -32,-55.425 z" /></g><g
               id="use6475"
               transform="matrix(0.5,0,0,0.5,32,55.426)"><path
                 id="use6543"
                 inkscape:connector-curvature="0"
                 d="M 0,0 64,0 32,55.425 0,0 Z" /><path
                 id="use6545"
                 inkscape:connector-curvature="0"
                 d="M 64,0 128,0 96,55.425 64,0 Z" /><path
                 id="use6547"
                 inkscape:connector-curvature="0"
                 d="m 32,55.426 64,0 -32,55.425 -32,-55.425 z" /></g></g></g></g></g></g><g
     inkscape:label="Layer 2 copy"
     id="g6745"
     inkscape:groupmode="layer"><g
       transform="matrix(0.49671458,0,0,-0.49671458,457.43378,178.55904)"
       id="g6747"><g
         transform="matrix(4.1875,0,0,4.1875,402,-571.71689)"
         id="g6749"><g
           id="g6751"><g
             transform="scale(0.5,0.5)"
             id="g6753"><g
               transform="scale(0.5,0.5)"
               id="g6755"><path
                 d="M 0,0 64,0 32,55.425 0,0 Z"
                 inkscape:connector-curvature="0"
                 id="path6757" /><path
                 d="M 64,0 128,0 96,55.425 64,0 Z"
                 inkscape:connector-curvature="0"
                 id="path6759" /><path
                 d="m 32,55.426 64,0 -32,55.425 -32,-55.425 z"
                 inkscape:connector-curvature="0"
                 id="path6761" /></g><g
               transform="matrix(0.5,0,0,0.5,64,0)"
               id="g6763"><path
                 d="M 0,0 64,0 32,55.425 0,0 Z"
                 inkscape:connector-curvature="0"
                 id="path6765" /><path
                 d="M 64,0 128,0 96,55.425 64,0 Z"
                 inkscape:connector-curvature="0"
                 id="path6767" /><path
                 d="m 32,55.426 64,0 -32,55.425 -32,-55.425 z"
                 inkscape:connector-curvature="0"
                 id="path6769" /></g><g
               transform="matrix(0.5,0,0,0.5,32,55.426)"
               id="g6771"><path
                 d="M 0,0 64,0 32,55.425 0,0 Z"
                 inkscape:connector-curvature="0"
                 id="path6773" /><path
                 d="M 64,0 128,0 96,55.425 64,0 Z"
                 inkscape:connector-curvature="0"
                 id="path6775" /><path
                 d="m 32,55.426 64,0 -32,55.425 -32,-55.425 z"
                 inkscape:connector-curvature="0"
                 id="path6777" /></g></g><g
             transform="matrix(0.5,0,0,0.5,64,0)"
             id="g6779"><g
               transform="scale(0.5,0.5)"
               id="g6781"><path
                 d="M 0,0 64,0 32,55.425 0,0 Z"
                 inkscape:connector-curvature="0"
                 id="path6783" /><path
                 d="M 64,0 128,0 96,55.425 64,0 Z"
                 inkscape:connector-curvature="0"
                 id="path6785" /><path
                 d="m 32,55.426 64,0 -32,55.425 -32,-55.425 z"
                 inkscape:connector-curvature="0"
                 id="path6787" /></g><g
               transform="matrix(0.5,0,0,0.5,64,0)"
               id="g6789"><path
                 d="M 0,0 64,0 32,55.425 0,0 Z"
                 inkscape:connector-curvature="0"
                 id="path6791" /><path
                 d="M 64,0 128,0 96,55.425 64,0 Z"
                 inkscape:connector-curvature="0"
                 id="path6793" /><path
                 d="m 32,55.426 64,0 -32,55.425 -32,-55.425 z"
                 inkscape:connector-curvature="0"
                 id="path6795" /></g><g
               transform="matrix(0.5,0,0,0.5,32,55.426)"
               id="g6797"><path
                 d="M 0,0 64,0 32,55.425 0,0 Z"
                 inkscape:connector-curvature="0"
                 id="path6799" /><path
                 d="M 64,0 128,0 96,55.425 64,0 Z"
                 inkscape:connector-curvature="0"
                 id="path6801" /><path
                 d="m 32,55.426 64,0 -32,55.425 -32,-55.425 z"
                 inkscape:connector-curvature="0"
                 id="path6803" /></g></g><g
             transform="matrix(0.5,0,0,0.5,32,55.426)"
             id="g6805"><g
               transform="scale(0.5,0.5)"
               id="g6807"><path
                 d="M 0,0 64,0 32,55.426 0,0 Z"
                 inkscape:connector-curvature="0"
                 id="path6809" /><path
                 d="M 64,0 128,0 96,55.426 64,0 Z"
                 inkscape:connector-curvature="0"
                 id="path6811" /><path
                 d="m 32,55.426 64,0 -32,55.425 -32,-55.425 z"
                 inkscape:connector-curvature="0"
                 id="path6813" /></g><g
               transform="matrix(0.5,0,0,0.5,64,0)"
               id="g6815"><path
                 d="M 0,0 64,0 32,55.426 0,0 Z"
                 inkscape:connector-curvature="0"
                 id="path6817" /><path
                 d="M 64,0 128,0 96,55.426 64,0 Z"
                 inkscape:connector-curvature="0"
                 id="path6819" /><path
                 d="m 32,55.426 64,0 -32,55.425 -32,-55.425 z"
                 inkscape:connector-curvature="0"
                 id="path6821" /></g><g
               transform="matrix(0.5,0,0,0.5,32,55.426)"
               id="g6823"><path
                 d="M 0,0 64,0 32,55.425 0,0 Z"
                 inkscape:connector-curvature="0"
                 id="path6825" /><path
                 d="M 64,0 128,0 96,55.425 64,0 Z"
                 inkscape:connector-curvature="0"
                 id="path6827" /><path
                 d="m 32,55.426 64,0 -32,55.425 -32,-55.425 z"
                 inkscape:connector-curvature="0"
                 id="path6829" /></g></g></g></g></g></g><g
     inkscape:groupmode="layer"
     id="g6831"
     inkscape:label="Layer 2 copy copy"><g
       id="g6833"
       transform="matrix(0.49671458,0,0,-0.49671458,726.13436,178.55887)"><g
         id="g6835"
         transform="matrix(4.1875,0,0,4.1875,402,-571.71689)"><g
           id="g6837"><g
             id="g6839"
             transform="scale(0.5,0.5)"><g
               id="g6841"
               transform="scale(0.5,0.5)"><path
                 id="path6843"
                 inkscape:connector-curvature="0"
                 d="M 0,0 64,0 32,55.425 0,0 Z" /><path
                 id="path6845"
                 inkscape:connector-curvature="0"
                 d="M 64,0 128,0 96,55.425 64,0 Z" /><path
                 id="path6847"
                 inkscape:connector-curvature="0"
                 d="m 32,55.426 64,0 -32,55.425 -32,-55.425 z" /></g><g
               id="g6849"
               transform="matrix(0.5,0,0,0.5,64,0)"><path
                 id="path6851"
                 inkscape:connector-curvature="0"
                 d="M 0,0 64,0 32,55.425 0,0 Z" /><path
                 id="path6853"
                 inkscape:connector-curvature="0"
                 d="M 64,0 128,0 96,55.425 64,0 Z" /><path
                 id="path6855"
                 inkscape:connector-curvature="0"
                 d="m 32,55.426 64,0 -32,55.425 -32,-55.425 z" /></g><g
               id="g6857"
               transform="matrix(0.5,0,0,0.5,32,55.426)"><path
                 id="path6859"
                 inkscape:connector-curvature="0"
                 d="M 0,0 64,0 32,55.425 0,0 Z" /><path
                 id="path6861"
                 inkscape:connector-curvature="0"
                 d="M 64,0 128,0 96,55.425 64,0 Z" /><path
                 id="path6863"
                 inkscape:connector-curvature="0"
                 d="m 32,55.426 64,0 -32,55.425 -32,-55.425 z" /></g></g><g
             id="g6865"
             transform="matrix(0.5,0,0,0.5,64,0)"><g
               id="g6867"
               transform="scale(0.5,0.5)"><path
                 id="path6869"
                 inkscape:connector-curvature="0"
                 d="M 0,0 64,0 32,55.425 0,0 Z" /><path
                 id="path6871"
                 inkscape:connector-curvature="0"
                 d="M 64,0 128,0 96,55.425 64,0 Z" /><path
                 id="path6873"
                 inkscape:connector-curvature="0"
                 d="m 32,55.426 64,0 -32,55.425 -32,-55.425 z" /></g><g
               id="g6875"
               transform="matrix(0.5,0,0,0.5,64,0)"><path
                 id="path6877"
                 inkscape:connector-curvature="0"
                 d="M 0,0 64,0 32,55.425 0,0 Z" /><path
                 id="path6879"
                 inkscape:connector-curvature="0"
                 d="M 64,0 128,0 96,55.425 64,0 Z" /><path
                 id="path6881"
                 inkscape:connector-curvature="0"
                 d="m 32,55.426 64,0 -32,55.425 -32,-55.425 z" /></g><g
               id="g6883"
               transform="matrix(0.5,0,0,0.5,32,55.426)"><path
                 id="path6885"
                 inkscape:connector-curvature="0"
                 d="M 0,0 64,0 32,55.425 0,0 Z" /><path
                 id="path6887"
                 inkscape:connector-curvature="0"
                 d="M 64,0 128,0 96,55.425 64,0 Z" /><path
                 id="path6889"
                 inkscape:connector-curvature="0"
                 d="m 32,55.426 64,0 -32,55.425 -32,-55.425 z" /></g></g><g
             id="g6891"
             transform="matrix(0.5,0,0,0.5,32,55.426)"><g
               id="g6893"
               transform="scale(0.5,0.5)"><path
                 id="path6895"
                 inkscape:connector-curvature="0"
                 d="M 0,0 64,0 32,55.426 0,0 Z" /><path
                 id="path6897"
                 inkscape:connector-curvature="0"
                 d="M 64,0 128,0 96,55.426 64,0 Z" /><path
                 id="path6899"
                 inkscape:connector-curvature="0"
                 d="m 32,55.426 64,0 -32,55.425 -32,-55.425 z" /></g><g
               id="g6901"
               transform="matrix(0.5,0,0,0.5,64,0)"><path
                 id="path6903"
                 inkscape:connector-curvature="0"
                 d="M 0,0 64,0 32,55.426 0,0 Z" /><path
                 id="path6905"
                 inkscape:connector-curvature="0"
                 d="M 64,0 128,0 96,55.426 64,0 Z" /><path
                 id="path6907"
                 inkscape:connector-curvature="0"
                 d="m 32,55.426 64,0 -32,55.425 -32,-55.425 z" /></g><g
               id="g6909"
               transform="matrix(0.5,0,0,0.5,32,55.426)"><path
                 id="path6911"
                 inkscape:connector-curvature="0"
                 d="M 0,0 64,0 32,55.425 0,0 Z" /><path
                 id="path6913"
                 inkscape:connector-curvature="0"
                 d="M 64,0 128,0 96,55.425 64,0 Z" /><path
                 id="path6915"
                 inkscape:connector-curvature="0"
                 d="m 32,55.426 64,0 -32,55.425 -32,-55.425 z" /></g></g></g></g></g></g><g
     inkscape:label="Layer 2 copy copy copy"
     id="g6917"
     inkscape:groupmode="layer"><g
       transform="matrix(0.49671458,0,0,-0.49671458,590.79422,-51.735439)"
       id="g6919"><g
         transform="matrix(4.1875,0,0,4.1875,402,-571.71689)"
         id="g6921"><g
           id="g6923"><g
             transform="scale(0.5,0.5)"
             id="g6925"><g
               transform="scale(0.5,0.5)"
               id="g6927"><path
                 d="M 0,0 64,0 32,55.425 0,0 Z"
                 inkscape:connector-curvature="0"
                 id="path6929" /><path
                 d="M 64,0 128,0 96,55.425 64,0 Z"
                 inkscape:connector-curvature="0"
                 id="path6931" /><path
                 d="m 32,55.426 64,0 -32,55.425 -32,-55.425 z"
                 inkscape:connector-curvature="0"
                 id="path6933" /></g><g
               transform="matrix(0.5,0,0,0.5,64,0)"
               id="g6935"><path
                 d="M 0,0 64,0 32,55.425 0,0 Z"
                 inkscape:connector-curvature="0"
                 id="path6937" /><path
                 d="M 64,0 128,0 96,55.425 64,0 Z"
                 inkscape:connector-curvature="0"
                 id="path6939" /><path
                 d="m 32,55.426 64,0 -32,55.425 -32,-55.425 z"
                 inkscape:connector-curvature="0"
                 id="path6941" /></g><g
               transform="matrix(0.5,0,0,0.5,32,55.426)"
               id="g6943"><path
                 d="M 0,0 64,0 32,55.425 0,0 Z"
                 inkscape:connector-curvature="0"
                 id="path6945" /><path
                 d="M 64,0 128,0 96,55.425 64,0 Z"
                 inkscape:connector-curvature="0"
                 id="path6947" /><path
                 d="m 32,55.426 64,0 -32,55.425 -32,-55.425 z"
                 inkscape:connector-curvature="0"
                 id="path6949" /></g></g><g
             transform="matrix(0.5,0,0,0.5,64,0)"
             id="g6951"><g
               transform="scale(0.5,0.5)"
               id="g6953"><path
                 d="M 0,0 64,0 32,55.425 0,0 Z"
                 inkscape:connector-curvature="0"
                 id="path6955" /><path
                 d="M 64,0 128,0 96,55.425 64,0 Z"
                 inkscape:connector-curvature="0"
                 id="path6957" /><path
                 d="m 32,55.426 64,0 -32,55.425 -32,-55.425 z"
                 inkscape:connector-curvature="0"
                 id="path6959" /></g><g
               transform="matrix(0.5,0,0,0.5,64,0)"
               id="g6961"><path
                 d="M 0,0 64,0 32,55.425 0,0 Z"
                 inkscape:connector-curvature="0"
                 id="path6963" /><path
                 d="M 64,0 128,0 96,55.425 64,0 Z"
                 inkscape:connector-curvature="0"
                 id="path6965" /><path
                 d="m 32,55.426 64,0 -32,55.425 -32,-55.425 z"
                 inkscape:connector-curvature="0"
                 id="path6967" /></g><g
               transform="matrix(0.5,0,0,0.5,32,55.426)"
               id="g6969"><path
                 d="M 0,0 64,0 32,55.425 0,0 Z"
                 inkscape:connector-curvature="0"
                 id="path6971" /><path
                 d="M 64,0 128,0 96,55.425 64,0 Z"
                 inkscape:connector-curvature="0"
                 id="path6973" /><path
                 d="m 32,55.426 64,0 -32,55.425 -32,-55.425 z"
                 inkscape:connector-curvature="0"
                 id="path6975" /></g></g><g
             transform="matrix(0.5,0,0,0.5,32,55.426)"
             id="g6977"><g
               transform="scale(0.5,0.5)"
               id="g6979"><path
                 d="M 0,0 64,0 32,55.426 0,0 Z"
                 inkscape:connector-curvature="0"
                 id="path6981" /><path
                 d="M 64,0 128,0 96,55.426 64,0 Z"
                 inkscape:connector-curvature="0"
                 id="path6983" /><path
                 d="m 32,55.426 64,0 -32,55.425 -32,-55.425 z"
                 inkscape:connector-curvature="0"
                 id="path6985" /></g><g
               transform="matrix(0.5,0,0,0.5,64,0)"
               id="g6987"><path
                 d="M 0,0 64,0 32,55.426 0,0 Z"
                 inkscape:connector-curvature="0"
                 id="path6989" /><path
                 d="M 64,0 128,0 96,55.426 64,0 Z"
                 inkscape:connector-curvature="0"
                 id="path6991" /><path
                 d="m 32,55.426 64,0 -32,55.425 -32,-55.425 z"
                 inkscape:connector-curvature="0"
                 id="path6993" /></g><g
               transform="matrix(0.5,0,0,0.5,32,55.426)"
               id="g6995"><path
                 d="M 0,0 64,0 32,55.425 0,0 Z"
                 inkscape:connector-curvature="0"
                 id="path6997" /><path
                 d="M 64,0 128,0 96,55.425 64,0 Z"
                 inkscape:connector-curvature="0"
                 id="path6999" /><path
                 d="m 32,55.426 64,0 -32,55.425 -32,-55.425 z"
                 inkscape:connector-curvature="0"
                 id="path7001" /></g></g></g></g></g></g></svg>